<svg xmlns="http://www.w3.org/2000/svg" style="display:none">
  <!-- Overview Icons -->
  <symbol id="icon-land" viewBox="0 0 48 48">
    <path fill="none" stroke="currentColor" stroke-width="2" stroke-linecap="round" stroke-linejoin="round" d="M6 38h36M10 38V18l14-8 14 8v20M18 38v-10h12v10M18 22h12v6H18z"/>
    <path fill="none" stroke="currentColor" stroke-width="2" d="M24 10v-4M20 8h8"/>
  </symbol>

  <symbol id="icon-units" viewBox="0 0 48 48">
    <path fill="none" stroke="currentColor" stroke-width="2" stroke-linecap="round" stroke-linejoin="round" d="M8 40V14l16-8 16 8v26H8zM8 14l16 8 16-8M24 22v18"/>
    <rect x="12" y="18" width="4" height="4" rx="0.5" fill="currentColor" opacity="0.5"/>
    <rect x="12" y="26" width="4" height="4" rx="0.5" fill="currentColor" opacity="0.5"/>
    <rect x="12" y="34" width="4" height="2" rx="0.5" fill="currentColor" opacity="0.5"/>
    <rect x="32" y="18" width="4" height="4" rx="0.5" fill="currentColor" opacity="0.5"/>
    <rect x="32" y="26" width="4" height="4" rx="0.5" fill="currentColor" opacity="0.5"/>
    <rect x="32" y="34" width="4" height="2" rx="0.5" fill="currentColor" opacity="0.5"/>
  </symbol>

  <symbol id="icon-towers" viewBox="0 0 48 48">
    <path fill="none" stroke="currentColor" stroke-width="2" stroke-linecap="round" stroke-linejoin="round" d="M14 40V10h20v30"/>
    <path fill="none" stroke="currentColor" stroke-width="1.5" d="M18 16h4v3h-4zM26 16h4v3h-4zM18 23h4v3h-4zM26 23h4v3h-4zM18 30h4v3h-4zM26 30h4v3h-4z"/>
    <path fill="none" stroke="currentColor" stroke-width="2" d="M21 40v-5h6v5"/>
    <path fill="none" stroke="currentColor" stroke-width="2" d="M8 40h32M24 10V6"/>
  </symbol>

  <!-- Amenity Highlight Icons -->
  <symbol id="icon-clubhouse" viewBox="0 0 48 48">
    <path fill="none" stroke="currentColor" stroke-width="2" stroke-linecap="round" stroke-linejoin="round" d="M6 22L24 8l18 14M10 20v18h28V20M18 38v-10h12v10"/>
    <path fill="none" stroke="currentColor" stroke-width="2" d="M16 26h4M28 26h4"/>
  </symbol>

  <symbol id="icon-pool" viewBox="0 0 48 48">
    <path fill="none" stroke="currentColor" stroke-width="2" stroke-linecap="round" d="M6 30c4-4 8 0 12-4s8 0 12-4 8 0 12-4M6 36c4-4 8 0 12-4s8 0 12-4 8 0 12-4"/>
    <circle cx="18" cy="16" r="4" fill="none" stroke="currentColor" stroke-width="2"/>
    <path fill="none" stroke="currentColor" stroke-width="2" d="M18 20v6M14 24h8"/>
  </symbol>

  <symbol id="icon-amenities-star" viewBox="0 0 48 48">
    <path fill="none" stroke="currentColor" stroke-width="2" stroke-linejoin="round" d="M24 6l5.5 11.2L42 19l-9 8.8L35.1 40 24 34.2 12.9 40 15 27.8 6 19l12.5-1.8z"/>
  </symbol>

  <symbol id="icon-retail" viewBox="0 0 48 48">
    <path fill="none" stroke="currentColor" stroke-width="2" stroke-linecap="round" stroke-linejoin="round" d="M6 18h36v22H6zM6 18l3-10h30l3 10M16 18v-3a3 3 0 016 0v3M24 18v-3a3 3 0 016 0v3"/>
    <path fill="none" stroke="currentColor" stroke-width="2" d="M18 28h12v12H18z"/>
  </symbol>

  <!-- Connectivity Icons -->
  <symbol id="icon-airport" viewBox="0 0 48 48">
    <path fill="none" stroke="currentColor" stroke-width="2" stroke-linecap="round" stroke-linejoin="round" d="M24 6l-6 14H6l4 4-2 8 16-6 16 6-2-8 4-4H30z"/>
    <path fill="none" stroke="currentColor" stroke-width="2" d="M24 34v8M20 42h8"/>
  </symbol>

  <symbol id="icon-metro" viewBox="0 0 48 48">
    <rect x="12" y="10" width="24" height="26" rx="6" fill="none" stroke="currentColor" stroke-width="2"/>
    <path fill="none" stroke="currentColor" stroke-width="2" d="M12 28h24M18 36l-4 6M30 36l4 6M14 42h6M28 42h6"/>
    <circle cx="19" cy="33" r="2" fill="currentColor" opacity="0.6"/>
    <circle cx="29" cy="33" r="2" fill="currentColor" opacity="0.6"/>
    <path fill="none" stroke="currentColor" stroke-width="2" d="M18 16h12M18 22h12"/>
  </symbol>

  <symbol id="icon-highway" viewBox="0 0 48 48">
    <path fill="none" stroke="currentColor" stroke-width="2" stroke-linecap="round" d="M12 42L20 6M36 42L28 6"/>
    <path stroke="currentColor" stroke-width="2" stroke-linecap="round" stroke-dasharray="4 4" d="M24 10v32"/>
    <path fill="none" stroke="currentColor" stroke-width="2" d="M8 42h32"/>
  </symbol>

  <symbol id="icon-ring-road" viewBox="0 0 48 48">
    <circle cx="24" cy="24" r="14" fill="none" stroke="currentColor" stroke-width="2"/>
    <circle cx="24" cy="24" r="6" fill="none" stroke="currentColor" stroke-width="2"/>
    <path fill="none" stroke="currentColor" stroke-width="2" d="M24 4v6M24 38v6M4 24h6M38 24h6"/>
  </symbol>

  <!-- Amenity Grid Icons -->
  <symbol id="icon-gym" viewBox="0 0 32 32">
    <path fill="none" stroke="currentColor" stroke-width="1.5" stroke-linecap="round" d="M4 16h24M7 12v8M25 12v8M4 13v6M28 13v6"/>
  </symbol>
  <symbol id="icon-yoga" viewBox="0 0 32 32">
    <circle cx="16" cy="8" r="3" fill="none" stroke="currentColor" stroke-width="1.5"/>
    <path fill="none" stroke="currentColor" stroke-width="1.5" stroke-linecap="round" d="M16 11v8M12 15h8M12 27l4-8 4 8"/>
  </symbol>
  <symbol id="icon-badminton" viewBox="0 0 32 32">
    <ellipse cx="16" cy="10" rx="6" ry="8" fill="none" stroke="currentColor" stroke-width="1.5"/>
    <path fill="none" stroke="currentColor" stroke-width="1.5" stroke-linecap="round" d="M16 18v10M13 28h6"/>
  </symbol>
  <symbol id="icon-tennis" viewBox="0 0 32 32">
    <circle cx="16" cy="16" r="10" fill="none" stroke="currentColor" stroke-width="1.5"/>
    <path fill="none" stroke="currentColor" stroke-width="1.5" d="M10 6c4 6 4 14 0 20M22 6c-4 6-4 14 0 20"/>
  </symbol>
  <symbol id="icon-basketball" viewBox="0 0 32 32">
    <circle cx="16" cy="16" r="10" fill="none" stroke="currentColor" stroke-width="1.5"/>
    <path fill="none" stroke="currentColor" stroke-width="1.5" d="M6 16h20M16 6v20M8 8c5 3 8 8 8 8s3-5 8-8"/>
  </symbol>
  <symbol id="icon-games" viewBox="0 0 32 32">
    <rect x="6" y="8" width="20" height="16" rx="3" fill="none" stroke="currentColor" stroke-width="1.5"/>
    <circle cx="21" cy="14" r="1.5" fill="currentColor"/>
    <circle cx="21" cy="19" r="1.5" fill="currentColor"/>
    <path fill="none" stroke="currentColor" stroke-width="1.5" d="M11 13v6M8 16h6"/>
  </symbol>
  <symbol id="icon-playground" viewBox="0 0 32 32">
    <path fill="none" stroke="currentColor" stroke-width="1.5" stroke-linecap="round" d="M8 28V8l12 6v14M20 14l6-3v17"/>
    <path fill="none" stroke="currentColor" stroke-width="1.5" d="M12 16c0 3 4 3 4 0"/>
  </symbol>
  <symbol id="icon-library" viewBox="0 0 32 32">
    <path fill="none" stroke="currentColor" stroke-width="1.5" stroke-linecap="round" d="M6 26V8h8v18M12 8v18M18 26V10l8-2v18"/>
  </symbol>
  <symbol id="icon-amphitheatre" viewBox="0 0 32 32">
    <path fill="none" stroke="currentColor" stroke-width="1.5" d="M6 24c0-8 4.5-14 10-14s10 6 10 14"/>
    <path fill="none" stroke="currentColor" stroke-width="1.5" d="M10 24c0-5 2.7-10 6-10s6 5 6 10"/>
    <path fill="none" stroke="currentColor" stroke-width="1.5" d="M14 24c0-3 .9-6 2-6s2 3 2 6"/>
    <line x1="4" y1="26" x2="28" y2="26" stroke="currentColor" stroke-width="1.5"/>
  </symbol>
  <symbol id="icon-jogging" viewBox="0 0 32 32">
    <circle cx="20" cy="6" r="2.5" fill="none" stroke="currentColor" stroke-width="1.5"/>
    <path fill="none" stroke="currentColor" stroke-width="1.5" stroke-linecap="round" stroke-linejoin="round" d="M14 13l4-1 2 5-4 3 1 8M16 20l-4 8M22 12l4 2"/>
  </symbol>
  <symbol id="icon-spa" viewBox="0 0 32 32">
    <path fill="none" stroke="currentColor" stroke-width="1.5" d="M16 4c0 8-8 12-8 18a8 8 0 0016 0c0-6-8-10-8-18z"/>
    <path fill="none" stroke="currentColor" stroke-width="1.5" d="M16 16c0 3-3 5-3 8"/>
  </symbol>
  <symbol id="icon-kids-pool" viewBox="0 0 32 32">
    <path fill="none" stroke="currentColor" stroke-width="1.5" stroke-linecap="round" d="M4 20c3-3 6 0 9-3s6 0 9-3 6 0 6 0M4 24c3-3 6 0 9-3s6 0 9-3 6 0 6 0"/>
    <circle cx="12" cy="12" r="2.5" fill="none" stroke="currentColor" stroke-width="1.5"/>
    <path fill="none" stroke="currentColor" stroke-width="1.5" d="M12 14.5v3"/>
  </symbol>

  <!-- Phone icon for sticky CTA -->
  <symbol id="icon-phone" viewBox="0 0 24 24">
    <path fill="none" stroke="currentColor" stroke-width="2" stroke-linecap="round" stroke-linejoin="round" d="M22 16.92v3a2 2 0 01-2.18 2 19.79 19.79 0 01-8.63-3.07 19.5 19.5 0 01-6-6A19.79 19.79 0 012.12 4.18 2 2 0 014.11 2h3a2 2 0 012 1.72c.127.96.362 1.903.7 2.81a2 2 0 01-.45 2.11L8.09 9.91a16 16 0 006 6l1.27-1.27a2 2 0 012.11-.45c.907.338 1.85.573 2.81.7A2 2 0 0122 16.92z"/>
  </symbol>

  <!-- Close icon -->
  <symbol id="icon-close" viewBox="0 0 24 24">
    <path fill="none" stroke="currentColor" stroke-width="2" stroke-linecap="round" d="M18 6L6 18M6 6l12 12"/>
  </symbol>

  <!-- Arrow right -->
  <symbol id="icon-arrow-right" viewBox="0 0 24 24">
    <path fill="none" stroke="currentColor" stroke-width="2" stroke-linecap="round" stroke-linejoin="round" d="M5 12h14M12 5l7 7-7 7"/>
  </symbol>
</svg>
